<svg width="371" height="89" viewBox="0 0 371 89" fill="none" xmlns="http://www.w3.org/2000/svg">
<path d="M66.5282 88.6082C59.9362 88.6082 53.1202 87.2322 46.0802 84.4802C39.1042 81.7922 32.6722 77.8882 26.7842 72.7682C18.5282 70.5282 12.0002 66.3042 7.20024 60.0962C2.40024 53.8882 0.000242233 46.2082 0.000242233 37.0562C0.000242233 29.5682 1.60024 23.0722 4.80024 17.5682C8.00024 12.0002 12.4802 7.68023 18.2402 4.60824C24.0002 1.53623 30.6882 0.000232697 38.3042 0.000232697C45.9842 0.000232697 52.6722 1.53623 58.3682 4.60824C64.1282 7.68023 68.6082 12.0002 71.8082 17.5682C75.0082 23.0722 76.6082 29.5682 76.6082 37.0562C76.6082 43.4562 75.4242 49.1522 73.0562 54.1442C70.6882 59.1362 67.3602 63.2642 63.0722 66.5282C58.8482 69.7282 53.8242 71.9362 48.0002 73.1522C52.2882 76.4802 56.7362 79.0082 61.3442 80.7362C66.0162 82.4642 70.5282 83.3282 74.8802 83.3282C79.4882 83.3282 83.5522 82.3682 87.0722 80.4482L86.9762 81.5042C84.5442 83.9362 81.5682 85.7282 78.0482 86.8802C74.5282 88.0322 70.6882 88.6082 66.5282 88.6082ZM38.3042 72.5762C41.6322 72.5762 44.6402 71.7442 47.3282 70.0802C50.0802 68.3522 52.4482 65.9202 54.4322 62.7842C56.3522 59.7122 57.8242 56.0002 58.8482 51.6482C59.9362 47.2322 60.4802 42.3682 60.4802 37.0562C60.4802 31.6802 59.9362 26.7842 58.8482 22.3682C57.8242 17.9522 56.3522 14.1762 54.4322 11.0402C52.4482 7.96824 50.0802 5.56824 47.3282 3.84023C44.6402 2.11223 41.6322 1.24823 38.3042 1.24823C34.9762 1.24823 31.9362 2.11223 29.1842 3.84023C26.4962 5.56824 24.1922 7.96824 22.2722 11.0402C20.3522 14.1762 18.8482 17.9522 17.7602 22.3682C16.7362 26.7842 16.2242 31.6802 16.2242 37.0562C16.2242 44.1602 17.1202 50.4002 18.9122 55.7762C20.7682 61.0882 23.3602 65.2162 26.6882 68.1602C30.0162 71.1042 33.8882 72.5762 38.3042 72.5762ZM77.917 73.3442V72.3842H78.301C80.605 72.3842 82.461 71.6802 83.869 70.2722C85.277 68.8642 85.981 67.0082 85.981 64.7042V9.98424C85.981 7.68023 85.277 5.82423 83.869 4.41623C82.461 3.00824 80.605 2.30424 78.301 2.30424H77.917V1.34423H107.389V2.30424H107.005C104.701 2.30424 102.845 3.00824 101.437 4.41623C100.029 5.82423 99.325 7.68023 99.325 9.98424V33.7922L123.901 11.5202C126.525 9.15223 127.837 7.04023 127.837 5.18423C127.837 3.26424 126.365 2.30424 123.421 2.30424H123.325V1.34423H143.677V2.30424C142.397 2.36824 140.861 2.65624 139.069 3.16824C137.341 3.68023 135.613 4.35223 133.885 5.18423C132.157 5.95224 130.685 6.88024 129.469 7.96823L109.117 26.6882L143.197 67.5842C144.349 68.9922 145.597 70.1442 146.941 71.0402C148.285 71.9362 149.597 72.3842 150.877 72.3842V73.3442H122.461V72.3842C125.149 72.3842 126.813 71.8722 127.453 70.8482C128.157 69.7602 127.805 68.3842 126.397 66.7202L99.325 34.2722V64.7042C99.325 67.0082 100.029 68.8642 101.437 70.2722C102.845 71.6802 104.701 72.3842 107.005 72.3842H107.389V73.3442H77.917ZM211.971 74.6882L161.667 10.5602C161.219 9.98423 160.707 9.40823 160.131 8.83223C159.619 8.25623 159.139 7.77623 158.691 7.39223V62.3042C158.691 65.0562 159.523 67.4242 161.187 69.4082C162.851 71.3922 165.059 72.3842 167.811 72.3842V73.3442H147.843V72.3842C150.659 72.3842 152.899 71.3922 154.563 69.4082C156.227 67.4242 157.059 65.0242 157.059 62.2082V6.04823C154.179 3.87224 151.139 2.62424 147.939 2.30424V1.34423H172.611L210.339 50.0162V12.3842C210.339 9.63223 209.507 7.26423 207.843 5.28023C206.179 3.29624 203.971 2.30424 201.219 2.30424V1.34423H221.091V2.30424C218.339 2.30424 216.131 3.29624 214.467 5.28023C212.803 7.26423 211.971 9.63223 211.971 12.3842V74.6882ZM259.186 74.6882C251.506 74.6882 244.754 73.1522 238.93 70.0802C233.17 66.9442 228.658 62.5922 225.394 57.0242C222.194 51.3922 220.594 44.8322 220.594 37.3442C220.594 29.8562 222.194 23.3282 225.394 17.7602C228.658 12.1282 233.17 7.77623 238.93 4.70424C244.754 1.56823 251.506 0.000232697 259.186 0.000232697C266.866 0.000232697 273.586 1.56823 279.346 4.70424C285.17 7.77623 289.682 12.1282 292.882 17.7602C296.146 23.3282 297.778 29.8562 297.778 37.3442C297.778 44.8322 296.146 51.3922 292.882 57.0242C289.682 62.5922 285.17 66.9442 279.346 70.0802C273.586 73.1522 266.866 74.6882 259.186 74.6882ZM259.186 73.1522C262.514 73.1522 265.554 72.2882 268.306 70.5602C271.058 68.8322 273.426 66.4002 275.41 63.2642C277.33 60.1282 278.802 56.3522 279.826 51.9362C280.914 47.5202 281.458 42.6242 281.458 37.2482C281.458 31.8722 280.914 26.9762 279.826 22.5602C278.802 18.0802 277.33 14.2722 275.41 11.1362C273.426 8.00024 271.058 5.56824 268.306 3.84023C265.554 2.11223 262.514 1.24823 259.186 1.24823C255.858 1.24823 252.818 2.11223 250.066 3.84023C247.314 5.56824 244.978 8.00024 243.058 11.1362C241.074 14.2722 239.538 18.0802 238.45 22.5602C237.426 26.9762 236.914 31.8722 236.914 37.2482C236.914 42.6242 237.426 47.5202 238.45 51.9362C239.538 56.3522 241.074 60.1282 243.058 63.2642C244.978 66.4002 247.314 68.8322 250.066 70.5602C252.818 72.2882 255.858 73.1522 259.186 73.1522ZM334.307 74.6882C328.675 74.6882 323.779 73.6002 319.619 71.4242C315.459 69.2482 312.227 66.1762 309.923 62.2082C307.683 58.1762 306.563 53.4722 306.563 48.0962V9.98424C306.563 7.68023 305.859 5.82423 304.451 4.41623C303.043 3.00824 301.187 2.30424 298.883 2.30424H298.499V1.34423H329.411V2.30424H329.123C326.819 2.30424 324.963 3.00824 323.555 4.41623C322.147 5.82423 321.443 7.68023 321.443 9.98424V48.0962C321.443 54.8802 323.171 60.2562 326.627 64.2242C330.147 68.1282 334.883 70.0802 340.835 70.0802C346.851 70.0802 351.587 68.0962 355.043 64.1282C358.499 60.0962 360.227 54.7522 360.227 48.0962V11.4242C360.227 8.67224 359.395 6.49623 357.731 4.89623C356.067 3.29623 353.859 2.43224 351.107 2.30424V1.34423H370.979V2.30424C368.227 2.43224 366.019 3.29623 364.355 4.89623C362.691 6.49623 361.859 8.67224 361.859 11.4242V48.0962C361.859 53.4722 360.739 58.1442 358.499 62.1122C356.323 66.0802 353.155 69.1842 348.995 71.4242C344.899 73.6002 340.003 74.6882 334.307 74.6882Z" fill="black"/>
</svg>
